<svg width="65" height="35" viewBox="0 0 65 35" fill="none" xmlns="http://www.w3.org/2000/svg">
<path d="M3.84 32.5828C3.35333 32.5828 2.9 32.4878 2.48 32.2978C2.06333 32.1078 1.7 31.8462 1.39 31.5128C1.08 31.1762 0.836667 30.7895 0.66 30.3528C0.486667 29.9128 0.4 29.4428 0.4 28.9428C0.4 28.4162 0.493333 27.9328 0.68 27.4928C0.87 27.0528 1.12833 26.6712 1.455 26.3478C1.78167 26.0245 2.15167 25.7745 2.565 25.5978C2.98167 25.4212 3.415 25.3328 3.865 25.3328C4.36833 25.3328 4.85667 25.4512 5.33 25.6878C5.80667 25.9212 6.22667 26.2828 6.59 26.7728L5.5 27.3578C5.27667 27.0845 5.02 26.8812 4.73 26.7478C4.44333 26.6112 4.15 26.5428 3.85 26.5428C3.55667 26.5428 3.275 26.6028 3.005 26.7228C2.73833 26.8428 2.5 27.0128 2.29 27.2328C2.08333 27.4495 1.92 27.7062 1.8 28.0028C1.68 28.2962 1.62 28.6178 1.62 28.9678C1.62 29.2978 1.67833 29.6095 1.795 29.9028C1.91167 30.1928 2.07167 30.4478 2.275 30.6678C2.48167 30.8845 2.72 31.0545 2.99 31.1778C3.26 31.3012 3.55 31.3628 3.86 31.3628C4.06667 31.3628 4.26833 31.3312 4.465 31.2678C4.665 31.2012 4.85167 31.1062 5.025 30.9828C5.20167 30.8595 5.35833 30.7095 5.495 30.5328C5.635 30.3562 5.75167 30.1562 5.845 29.9328H4.57V28.8678H7.28C7.29333 29.3778 7.21333 29.8562 7.04 30.3028C6.86667 30.7495 6.62167 31.1445 6.305 31.4878C5.98833 31.8312 5.62 32.0995 5.2 32.2928C4.78 32.4862 4.32667 32.5828 3.84 32.5828ZM8.19766 32.4528V24.9528H9.41766V32.4528H8.19766ZM12.7414 32.5828C12.2814 32.5828 11.8614 32.4645 11.4814 32.2278C11.1047 31.9912 10.8031 31.6745 10.5764 31.2778C10.3531 30.8778 10.2414 30.4362 10.2414 29.9528C10.2414 29.5862 10.3064 29.2445 10.4364 28.9278C10.5664 28.6078 10.7447 28.3278 10.9714 28.0878C11.2014 27.8445 11.4681 27.6545 11.7714 27.5178C12.0747 27.3812 12.3981 27.3128 12.7414 27.3128C13.2014 27.3128 13.6197 27.4312 13.9964 27.6678C14.3764 27.9045 14.6781 28.2228 14.9014 28.6228C15.1281 29.0228 15.2414 29.4662 15.2414 29.9528C15.2414 30.3162 15.1764 30.6562 15.0464 30.9728C14.9164 31.2895 14.7364 31.5695 14.5064 31.8128C14.2797 32.0528 14.0147 32.2412 13.7114 32.3778C13.4114 32.5145 13.0881 32.5828 12.7414 32.5828ZM12.7414 31.3628C12.9847 31.3628 13.2031 31.2978 13.3964 31.1678C13.5897 31.0378 13.7414 30.8662 13.8514 30.6528C13.9647 30.4395 14.0214 30.2062 14.0214 29.9528C14.0214 29.6928 13.9631 29.4562 13.8464 29.2428C13.7331 29.0262 13.5781 28.8545 13.3814 28.7278C13.1881 28.5978 12.9747 28.5328 12.7414 28.5328C12.5014 28.5328 12.2847 28.5978 12.0914 28.7278C11.8981 28.8578 11.7447 29.0312 11.6314 29.2478C11.5181 29.4645 11.4614 29.6995 11.4614 29.9528C11.4614 30.2162 11.5197 30.4545 11.6364 30.6678C11.7531 30.8812 11.9081 31.0512 12.1014 31.1778C12.2981 31.3012 12.5114 31.3628 12.7414 31.3628ZM18.6018 27.3128C19.0885 27.3128 19.5318 27.4312 19.9318 27.6678C20.3318 27.9045 20.6501 28.2228 20.8868 28.6228C21.1235 29.0195 21.2418 29.4595 21.2418 29.9428C21.2418 30.3062 21.1735 30.6478 21.0368 30.9678C20.9001 31.2878 20.7101 31.5695 20.4668 31.8128C20.2268 32.0528 19.9468 32.2412 19.6268 32.3778C19.3101 32.5145 18.9685 32.5828 18.6018 32.5828C18.2885 32.5828 18.0101 32.5128 17.7668 32.3728C17.5268 32.2295 17.3251 32.0445 17.1618 31.8178V32.4528H15.9418V24.9528H17.1618V28.0778C17.3251 27.8512 17.5268 27.6678 17.7668 27.5278C18.0101 27.3845 18.2885 27.3128 18.6018 27.3128ZM18.5868 31.4028C18.8468 31.4028 19.0818 31.3378 19.2918 31.2078C19.5051 31.0745 19.6751 30.8978 19.8018 30.6778C19.9285 30.4578 19.9918 30.2128 19.9918 29.9428C19.9918 29.6762 19.9285 29.4328 19.8018 29.2128C19.6751 28.9895 19.5051 28.8128 19.2918 28.6828C19.0785 28.5528 18.8435 28.4878 18.5868 28.4878C18.3335 28.4878 18.1068 28.5545 17.9068 28.6878C17.7068 28.8178 17.5501 28.9945 17.4368 29.2178C17.3235 29.4378 17.2668 29.6795 17.2668 29.9428C17.2668 30.2128 17.3235 30.4595 17.4368 30.6828C17.5501 30.9028 17.7068 31.0778 17.9068 31.2078C18.1068 31.3378 18.3335 31.4028 18.5868 31.4028ZM25.8153 27.4528H27.0353V32.4528H25.8153L25.7603 31.8328C25.6236 32.0562 25.442 32.2378 25.2153 32.3778C24.992 32.5145 24.727 32.5828 24.4203 32.5828C24.0503 32.5828 23.7036 32.5128 23.3803 32.3728C23.057 32.2328 22.772 32.0395 22.5253 31.7928C22.282 31.5462 22.0903 31.2612 21.9503 30.9378C21.8136 30.6145 21.7453 30.2678 21.7453 29.8978C21.7453 29.5412 21.8103 29.2062 21.9403 28.8928C22.0736 28.5795 22.2586 28.3045 22.4953 28.0678C22.732 27.8312 23.0053 27.6462 23.3153 27.5128C23.6253 27.3795 23.9586 27.3128 24.3153 27.3128C24.6453 27.3128 24.9403 27.3862 25.2003 27.5328C25.4636 27.6795 25.687 27.8662 25.8703 28.0928L25.8153 27.4528ZM24.3903 31.4078C24.6503 31.4078 24.8803 31.3428 25.0803 31.2128C25.2803 31.0828 25.437 30.9078 25.5503 30.6878C25.6636 30.4645 25.7203 30.2195 25.7203 29.9528C25.7203 29.6828 25.6636 29.4378 25.5503 29.2178C25.437 28.9945 25.2786 28.8178 25.0753 28.6878C24.8753 28.5578 24.647 28.4928 24.3903 28.4928C24.1336 28.4928 23.8986 28.5595 23.6853 28.6928C23.4753 28.8228 23.307 28.9978 23.1803 29.2178C23.057 29.4378 22.9953 29.6828 22.9953 29.9528C22.9953 30.2228 23.0586 30.4678 23.1853 30.6878C23.312 30.9078 23.4803 31.0828 23.6903 31.2128C23.9036 31.3428 24.137 31.4078 24.3903 31.4078ZM28.0609 32.4528V24.9528H29.2809V32.4528H28.0609ZM32.8852 32.4528V25.4528H37.0202V26.6728H34.1052V28.0928H36.5402V29.3128H34.1052V32.4528H32.8852ZM37.7484 32.4528V24.9528H38.9684V32.4528H37.7484ZM39.9703 30.6028V27.4528H41.1903V30.2828C41.1903 30.4795 41.2386 30.6595 41.3353 30.8228C41.432 30.9828 41.5603 31.1112 41.7203 31.2078C41.8836 31.3012 42.062 31.3478 42.2553 31.3478C42.4553 31.3478 42.6353 31.3012 42.7953 31.2078C42.9553 31.1112 43.0836 30.9828 43.1803 30.8228C43.277 30.6595 43.3253 30.4795 43.3253 30.2828V27.4528H44.5453L44.5503 32.4528H43.3303L43.3253 31.9978C43.152 32.1778 42.947 32.3212 42.7103 32.4278C42.4736 32.5312 42.2203 32.5828 41.9503 32.5828C41.587 32.5828 41.2553 32.4945 40.9553 32.3178C40.6553 32.1378 40.4153 31.8995 40.2353 31.6028C40.0586 31.3028 39.9703 30.9695 39.9703 30.6028ZM47.0262 32.5428C46.7662 32.5262 46.5145 32.4745 46.2712 32.3878C46.0312 32.2978 45.8178 32.1762 45.6312 32.0228C45.4445 31.8695 45.3012 31.6862 45.2012 31.4728L46.2312 31.0328C46.2712 31.0995 46.3362 31.1712 46.4262 31.2478C46.5162 31.3212 46.6228 31.3828 46.7462 31.4328C46.8728 31.4828 47.0112 31.5078 47.1612 31.5078C47.2878 31.5078 47.4078 31.4912 47.5212 31.4578C47.6378 31.4212 47.7312 31.3662 47.8012 31.2928C47.8745 31.2195 47.9112 31.1245 47.9112 31.0078C47.9112 30.8845 47.8678 30.7895 47.7812 30.7228C47.6978 30.6528 47.5912 30.6012 47.4612 30.5678C47.3345 30.5312 47.2112 30.4978 47.0912 30.4678C46.7745 30.4045 46.4795 30.3062 46.2062 30.1728C45.9362 30.0395 45.7178 29.8678 45.5512 29.6578C45.3878 29.4445 45.3062 29.1878 45.3062 28.8878C45.3062 28.5578 45.3928 28.2728 45.5662 28.0328C45.7428 27.7928 45.9712 27.6078 46.2512 27.4778C46.5345 27.3478 46.8395 27.2828 47.1662 27.2828C47.5628 27.2828 47.9262 27.3662 48.2562 27.5328C48.5895 27.6962 48.8528 27.9278 49.0462 28.2278L48.0812 28.7978C48.0345 28.7178 47.9695 28.6445 47.8862 28.5778C47.8028 28.5078 47.7078 28.4512 47.6012 28.4078C47.4945 28.3612 47.3828 28.3345 47.2662 28.3278C47.1162 28.3212 46.9795 28.3345 46.8562 28.3678C46.7328 28.4012 46.6328 28.4578 46.5562 28.5378C46.4828 28.6178 46.4462 28.7245 46.4462 28.8578C46.4462 28.9845 46.4962 29.0795 46.5962 29.1428C46.6962 29.2028 46.8162 29.2495 46.9562 29.2828C47.0995 29.3162 47.2362 29.3528 47.3662 29.3928C47.6595 29.4895 47.9345 29.6078 48.1912 29.7478C48.4512 29.8878 48.6595 30.0595 48.8162 30.2628C48.9728 30.4662 49.0478 30.7095 49.0412 30.9928C49.0412 31.3162 48.9445 31.5995 48.7512 31.8428C48.5578 32.0828 48.3078 32.2662 48.0012 32.3928C47.6978 32.5195 47.3728 32.5695 47.0262 32.5428ZM54.4769 29.2928V32.4528H53.2569V29.6128C53.2569 29.4162 53.2085 29.2378 53.1119 29.0778C53.0152 28.9145 52.8852 28.7862 52.7219 28.6928C52.5619 28.5962 52.3835 28.5478 52.1869 28.5478C51.9902 28.5478 51.8102 28.5962 51.6469 28.6928C51.4869 28.7862 51.3585 28.9145 51.2619 29.0778C51.1685 29.2378 51.1219 29.4162 51.1219 29.6128V32.4528H49.9019L49.8969 24.9528H51.1169L51.1219 27.8978C51.2919 27.7178 51.4952 27.5762 51.7319 27.4728C51.9685 27.3662 52.2235 27.3128 52.4969 27.3128C52.8602 27.3128 53.1919 27.4028 53.4919 27.5828C53.7919 27.7595 54.0302 27.9978 54.2069 28.2978C54.3869 28.5945 54.4769 28.9262 54.4769 29.2928ZM57.5754 32.5828C57.1154 32.5828 56.6954 32.4645 56.3154 32.2278C55.9387 31.9912 55.6371 31.6728 55.4104 31.2728C55.1871 30.8728 55.0754 30.4312 55.0754 29.9478C55.0754 29.5845 55.1404 29.2445 55.2704 28.9278C55.4004 28.6078 55.5787 28.3278 55.8054 28.0878C56.0354 27.8445 56.3021 27.6545 56.6054 27.5178C56.9087 27.3812 57.2321 27.3128 57.5754 27.3128C57.9654 27.3128 58.3221 27.3962 58.6454 27.5628C58.9721 27.7262 59.2487 27.9512 59.4754 28.2378C59.7021 28.5245 59.8671 28.8512 59.9704 29.2178C60.0737 29.5845 60.0971 29.9678 60.0404 30.3678H56.3854C56.4321 30.5545 56.5087 30.7228 56.6154 30.8728C56.7221 31.0195 56.8571 31.1378 57.0204 31.2278C57.1837 31.3145 57.3687 31.3595 57.5754 31.3628C57.7887 31.3662 57.9821 31.3162 58.1554 31.2128C58.3321 31.1062 58.4787 30.9628 58.5954 30.7828L59.8404 31.0728C59.6371 31.5162 59.3337 31.8795 58.9304 32.1628C58.5271 32.4428 58.0754 32.5828 57.5754 32.5828ZM56.3454 29.4528H58.8054C58.7687 29.2528 58.6904 29.0728 58.5704 28.9128C58.4537 28.7495 58.3087 28.6195 58.1354 28.5228C57.9621 28.4262 57.7754 28.3778 57.5754 28.3778C57.3754 28.3778 57.1904 28.4262 57.0204 28.5228C56.8504 28.6162 56.7054 28.7445 56.5854 28.9078C56.4687 29.0678 56.3887 29.2495 56.3454 29.4528ZM62.368 32.5428C62.108 32.5262 61.8563 32.4745 61.613 32.3878C61.373 32.2978 61.1596 32.1762 60.973 32.0228C60.7863 31.8695 60.643 31.6862 60.543 31.4728L61.573 31.0328C61.613 31.0995 61.678 31.1712 61.768 31.2478C61.858 31.3212 61.9646 31.3828 62.088 31.4328C62.2146 31.4828 62.353 31.5078 62.503 31.5078C62.6296 31.5078 62.7496 31.4912 62.863 31.4578C62.9796 31.4212 63.073 31.3662 63.143 31.2928C63.2163 31.2195 63.253 31.1245 63.253 31.0078C63.253 30.8845 63.2096 30.7895 63.123 30.7228C63.0396 30.6528 62.933 30.6012 62.803 30.5678C62.6763 30.5312 62.553 30.4978 62.433 30.4678C62.1163 30.4045 61.8213 30.3062 61.548 30.1728C61.278 30.0395 61.0596 29.8678 60.893 29.6578C60.7296 29.4445 60.648 29.1878 60.648 28.8878C60.648 28.5578 60.7346 28.2728 60.908 28.0328C61.0846 27.7928 61.313 27.6078 61.593 27.4778C61.8763 27.3478 62.1813 27.2828 62.508 27.2828C62.9046 27.2828 63.268 27.3662 63.598 27.5328C63.9313 27.6962 64.1946 27.9278 64.388 28.2278L63.423 28.7978C63.3763 28.7178 63.3113 28.6445 63.228 28.5778C63.1446 28.5078 63.0496 28.4512 62.943 28.4078C62.8363 28.3612 62.7246 28.3345 62.608 28.3278C62.458 28.3212 62.3213 28.3345 62.198 28.3678C62.0746 28.4012 61.9746 28.4578 61.898 28.5378C61.8246 28.6178 61.788 28.7245 61.788 28.8578C61.788 28.9845 61.838 29.0795 61.938 29.1428C62.038 29.2028 62.158 29.2495 62.298 29.2828C62.4413 29.3162 62.578 29.3528 62.708 29.3928C63.0013 29.4895 63.2763 29.6078 63.533 29.7478C63.793 29.8878 64.0013 30.0595 64.158 30.2628C64.3146 30.4662 64.3896 30.7095 64.383 30.9928C64.383 31.3162 64.2863 31.5995 64.093 31.8428C63.8996 32.0828 63.6496 32.2662 63.343 32.3928C63.0396 32.5195 62.7146 32.5695 62.368 32.5428Z" fill="#7D756C"/>
<path d="M23.826 0C23.3484 0 22.8591 0.168667 22.513 0.516084C22.1679 0.861667 21.9999 1.353 21.9999 1.83333V11.9167C21.9999 14.4742 23.5082 16.6073 25.6521 17.9612V22H39.3477V17.9612C41.4915 16.6073 42.9999 14.4733 42.9999 11.9167V11H31.1303V1.83333C31.1303 1.35392 30.9623 0.862583 30.6163 0.515167C30.2721 0.168666 29.7827 0 29.3042 0H23.826ZM23.826 1.83333H29.3042V11H23.826V1.83333ZM25.6521 3.66667V6.41667H27.4781V3.66667H25.6521ZM24.1108 12.8333H40.888C40.5639 14.4164 39.6399 15.8125 38.0064 16.7008L37.5216 16.9583V20.1667H27.4781V16.9583L26.9933 16.7008C25.359 15.8125 24.4359 14.4164 24.1117 12.8333H24.1108Z" fill="#7D756C"/>
</svg>
