<svg width="45" height="46" viewBox="0 0 45 46" fill="none" xmlns="http://www.w3.org/2000/svg">
<mask id="path-1-inside-1_710_4" fill="white">
<path d="M31 16.4529C31 18.2329 30.4722 19.973 29.4832 21.453C28.4943 22.9331 27.0887 24.0866 25.4442 24.7678C23.7996 25.449 21.99 25.6272 20.2442 25.2799C18.4984 24.9327 16.8947 24.0755 15.636 22.8168C14.3774 21.5582 13.5202 19.9545 13.1729 18.2087C12.8257 16.4629 13.0039 14.6533 13.6851 13.0087C14.3663 11.3642 15.5198 9.95859 16.9999 8.96965C18.4799 7.98072 20.22 7.45288 22 7.45288V16.4529H31Z"/>
</mask>
<path d="M31 16.4529C31 18.2329 30.4722 19.973 29.4832 21.453C28.4943 22.9331 27.0887 24.0866 25.4442 24.7678C23.7996 25.449 21.99 25.6272 20.2442 25.2799C18.4984 24.9327 16.8947 24.0755 15.636 22.8168C14.3774 21.5582 13.5202 19.9545 13.1729 18.2087C12.8257 16.4629 13.0039 14.6533 13.6851 13.0087C14.3663 11.3642 15.5198 9.95859 16.9999 8.96965C18.4799 7.98072 20.22 7.45288 22 7.45288V16.4529H31Z" fill="white" stroke="#7D756C" stroke-width="4" mask="url(#path-1-inside-1_710_4)"/>
<mask id="path-2-inside-2_710_4" fill="white">
<path d="M23 6.45288C24.1819 6.45288 25.3522 6.68567 26.4442 7.13797C27.5361 7.59026 28.5282 8.25319 29.364 9.08892C30.1997 9.92465 30.8626 10.9168 31.3149 12.0087C31.7672 13.1007 32 14.271 32 15.4529L23 15.4529V6.45288Z"/>
</mask>
<path d="M23 6.45288C24.1819 6.45288 25.3522 6.68567 26.4442 7.13797C27.5361 7.59026 28.5282 8.25319 29.364 9.08892C30.1997 9.92465 30.8626 10.9168 31.3149 12.0087C31.7672 13.1007 32 14.271 32 15.4529L23 15.4529V6.45288Z" fill="white" stroke="#7D756C" stroke-width="4" mask="url(#path-2-inside-2_710_4)"/>
<path d="M4.6 37.4529L5.96 30.4529H6.97L8.675 34.9379L10.38 30.4529H11.39L12.75 37.4529H11.505L10.665 33.1229L9.09 37.2929H8.255L6.68 33.1229L5.845 37.4529H4.6ZM13.7504 32.4529H14.9704V37.4529H13.7504V32.4529ZM14.3704 31.8079C14.1904 31.8079 14.0387 31.7495 13.9154 31.6329C13.7921 31.5129 13.7304 31.3629 13.7304 31.1829C13.7304 31.0062 13.7921 30.8579 13.9154 30.7379C14.0387 30.6179 14.1887 30.5579 14.3654 30.5579C14.5421 30.5579 14.6904 30.6179 14.8104 30.7379C14.9337 30.8579 14.9954 31.0062 14.9954 31.1829C14.9954 31.3629 14.9354 31.5129 14.8154 31.6329C14.6954 31.7495 14.5471 31.8079 14.3704 31.8079ZM17.5691 37.5429C17.3091 37.5262 17.0575 37.4745 16.8141 37.3879C16.5741 37.2979 16.3608 37.1762 16.1741 37.0229C15.9875 36.8695 15.8441 36.6862 15.7441 36.4729L16.7741 36.0329C16.8141 36.0995 16.8791 36.1712 16.9691 36.2479C17.0591 36.3212 17.1658 36.3829 17.2891 36.4329C17.4158 36.4829 17.5541 36.5079 17.7041 36.5079C17.8308 36.5079 17.9508 36.4912 18.0641 36.4579C18.1808 36.4212 18.2741 36.3662 18.3441 36.2929C18.4175 36.2195 18.4541 36.1245 18.4541 36.0079C18.4541 35.8845 18.4108 35.7895 18.3241 35.7229C18.2408 35.6529 18.1341 35.6012 18.0041 35.5679C17.8775 35.5312 17.7541 35.4979 17.6341 35.4679C17.3175 35.4045 17.0225 35.3062 16.7491 35.1729C16.4791 35.0395 16.2608 34.8679 16.0941 34.6579C15.9308 34.4445 15.8491 34.1879 15.8491 33.8879C15.8491 33.5579 15.9358 33.2729 16.1091 33.0329C16.2858 32.7929 16.5141 32.6079 16.7941 32.4779C17.0775 32.3479 17.3825 32.2829 17.7091 32.2829C18.1058 32.2829 18.4691 32.3662 18.7991 32.5329C19.1325 32.6962 19.3958 32.9279 19.5891 33.2279L18.6241 33.7979C18.5775 33.7179 18.5125 33.6445 18.4291 33.5779C18.3458 33.5079 18.2508 33.4512 18.1441 33.4079C18.0375 33.3612 17.9258 33.3345 17.8091 33.3279C17.6591 33.3212 17.5225 33.3345 17.3991 33.3679C17.2758 33.4012 17.1758 33.4579 17.0991 33.5379C17.0258 33.6179 16.9891 33.7245 16.9891 33.8579C16.9891 33.9845 17.0391 34.0795 17.1391 34.1429C17.2391 34.2029 17.3591 34.2495 17.4991 34.2829C17.6425 34.3162 17.7791 34.3529 17.9091 34.3929C18.2025 34.4895 18.4775 34.6079 18.7341 34.7479C18.9941 34.8879 19.2025 35.0595 19.3591 35.2629C19.5158 35.4662 19.5908 35.7095 19.5841 35.9929C19.5841 36.3162 19.4875 36.5995 19.2941 36.8429C19.1008 37.0829 18.8508 37.2662 18.5441 37.3929C18.2408 37.5195 17.9158 37.5695 17.5691 37.5429ZM21.9148 37.5429C21.6548 37.5262 21.4032 37.4745 21.1598 37.3879C20.9198 37.2979 20.7065 37.1762 20.5198 37.0229C20.3332 36.8695 20.1898 36.6862 20.0898 36.4729L21.1198 36.0329C21.1598 36.0995 21.2248 36.1712 21.3148 36.2479C21.4048 36.3212 21.5115 36.3829 21.6348 36.4329C21.7615 36.4829 21.8998 36.5079 22.0498 36.5079C22.1765 36.5079 22.2965 36.4912 22.4098 36.4579C22.5265 36.4212 22.6198 36.3662 22.6898 36.2929C22.7632 36.2195 22.7998 36.1245 22.7998 36.0079C22.7998 35.8845 22.7565 35.7895 22.6698 35.7229C22.5865 35.6529 22.4798 35.6012 22.3498 35.5679C22.2232 35.5312 22.0998 35.4979 21.9798 35.4679C21.6632 35.4045 21.3682 35.3062 21.0948 35.1729C20.8248 35.0395 20.6065 34.8679 20.4398 34.6579C20.2765 34.4445 20.1948 34.1879 20.1948 33.8879C20.1948 33.5579 20.2815 33.2729 20.4548 33.0329C20.6315 32.7929 20.8598 32.6079 21.1398 32.4779C21.4232 32.3479 21.7282 32.2829 22.0548 32.2829C22.4515 32.2829 22.8148 32.3662 23.1448 32.5329C23.4782 32.6962 23.7415 32.9279 23.9348 33.2279L22.9698 33.7979C22.9232 33.7179 22.8582 33.6445 22.7748 33.5779C22.6915 33.5079 22.5965 33.4512 22.4898 33.4079C22.3832 33.3612 22.2715 33.3345 22.1548 33.3279C22.0048 33.3212 21.8682 33.3345 21.7448 33.3679C21.6215 33.4012 21.5215 33.4579 21.4448 33.5379C21.3715 33.6179 21.3348 33.7245 21.3348 33.8579C21.3348 33.9845 21.3848 34.0795 21.4848 34.1429C21.5848 34.2029 21.7048 34.2495 21.8448 34.2829C21.9882 34.3162 22.1248 34.3529 22.2548 34.3929C22.5482 34.4895 22.8232 34.6079 23.0798 34.7479C23.3398 34.8879 23.5482 35.0595 23.7048 35.2629C23.8615 35.4662 23.9365 35.7095 23.9298 35.9929C23.9298 36.3162 23.8332 36.5995 23.6398 36.8429C23.4465 37.0829 23.1965 37.2662 22.8898 37.3929C22.5865 37.5195 22.2615 37.5695 21.9148 37.5429ZM24.6684 32.4529H25.8884V37.4529H24.6684V32.4529ZM25.2884 31.8079C25.1084 31.8079 24.9567 31.7495 24.8334 31.6329C24.71 31.5129 24.6484 31.3629 24.6484 31.1829C24.6484 31.0062 24.71 30.8579 24.8334 30.7379C24.9567 30.6179 25.1067 30.5579 25.2834 30.5579C25.46 30.5579 25.6084 30.6179 25.7284 30.7379C25.8517 30.8579 25.9134 31.0062 25.9134 31.1829C25.9134 31.3629 25.8534 31.5129 25.7334 31.6329C25.6134 31.7495 25.465 31.8079 25.2884 31.8079ZM29.173 37.5829C28.713 37.5829 28.293 37.4645 27.913 37.2279C27.5364 36.9912 27.2347 36.6745 27.008 36.2779C26.7847 35.8779 26.673 35.4362 26.673 34.9529C26.673 34.5862 26.738 34.2445 26.868 33.9279C26.998 33.6079 27.1764 33.3279 27.403 33.0879C27.633 32.8445 27.8997 32.6545 28.203 32.5179C28.5064 32.3812 28.8297 32.3129 29.173 32.3129C29.633 32.3129 30.0514 32.4312 30.428 32.6679C30.808 32.9045 31.1097 33.2229 31.333 33.6229C31.5597 34.0229 31.673 34.4662 31.673 34.9529C31.673 35.3162 31.608 35.6562 31.478 35.9729C31.348 36.2895 31.168 36.5695 30.938 36.8129C30.7114 37.0529 30.4464 37.2412 30.143 37.3779C29.843 37.5145 29.5197 37.5829 29.173 37.5829ZM29.173 36.3629C29.4164 36.3629 29.6347 36.2979 29.828 36.1679C30.0214 36.0379 30.173 35.8662 30.283 35.6529C30.3964 35.4395 30.453 35.2062 30.453 34.9529C30.453 34.6929 30.3947 34.4562 30.278 34.2429C30.1647 34.0262 30.0097 33.8545 29.813 33.7279C29.6197 33.5979 29.4064 33.5329 29.173 33.5329C28.933 33.5329 28.7164 33.5979 28.523 33.7279C28.3297 33.8579 28.1764 34.0312 28.063 34.2479C27.9497 34.4645 27.893 34.6995 27.893 34.9529C27.893 35.2162 27.9514 35.4545 28.068 35.6679C28.1847 35.8812 28.3397 36.0512 28.533 36.1779C28.7297 36.3012 28.943 36.3629 29.173 36.3629ZM37.0316 34.2929V37.4529H35.8116V34.6129C35.8116 34.4162 35.7632 34.2379 35.6666 34.0779C35.5699 33.9145 35.4399 33.7862 35.2766 33.6929C35.1166 33.5962 34.9382 33.5479 34.7416 33.5479C34.5449 33.5479 34.3649 33.5962 34.2016 33.6929C34.0416 33.7862 33.9132 33.9145 33.8166 34.0779C33.7232 34.2379 33.6766 34.4162 33.6766 34.6129V37.4529H32.4566L32.4516 32.4529H33.6716L33.6766 32.8979C33.8466 32.7179 34.0499 32.5762 34.2866 32.4729C34.5232 32.3662 34.7782 32.3129 35.0516 32.3129C35.4149 32.3129 35.7466 32.4029 36.0466 32.5829C36.3466 32.7595 36.5849 32.9979 36.7616 33.2979C36.9416 33.5945 37.0316 33.9262 37.0316 34.2929Z" fill="#7D756C"/>
</svg>
